nColumns=28
nRows=73
DataType=double
version=3
OpenSimVersion=4.1
endheader
time	ground_force_1_vx	ground_force_1_vy	ground_force_1_vz	ground_force_1_px	ground_force_1_py	ground_force_1_pz	ground_force_1_mx	ground_force_1_my	ground_force_1_mz	ground_force_2_vx	ground_force_2_vy	ground_force_2_vz	ground_force_2_px	ground_force_2_py	ground_force_2_pz	ground_force_2_mx	ground_force_2_my	ground_force_2_mz	ground_force_3_vx	ground_force_3_vy	ground_force_3_vz	ground_force_3_px	ground_force_3_py	ground_force_3_pz	ground_force_3_mx	ground_force_3_my	ground_force_3_mz
5.92	-2.27362	340.307	-37.7698	-0.260891	0.006	-0.428222	0	-3.92914	0	-5.72536	283.742	31.9526	-0.193773	0.006	-0.841018	0	2.62419	0	0	0	0	0	0	0	0	0	0
5.93	-1.78169	337.561	-37.0969	-0.261811	0.006	-0.428718	0	-3.87905	0	-5.63448	281.647	31.7468	-0.194447	0.006	-0.840745	0	2.5934	0	0	0	0	0	0	0	0	0	0
5.94	-1.27654	335.189	-36.4568	-0.262744	0.006	-0.429212	0	-3.83293	0	-5.5196	280.122	31.6009	-0.195214	0.006	-0.840461	0	2.56936	0	0	0	0	0	0	0	0	0	0
5.95	-0.764585	333.166	-35.8616	-0.263677	0.006	-0.429696	0	-3.79138	0	-5.38305	279.132	31.5144	-0.196062	0.006	-0.840172	0	2.55213	0	0	0	0	0	0	0	0	0	0
5.96	-0.254026	331.47	-35.3216	-0.264596	0.006	-0.430162	0	-3.75498	0	-5.22777	278.638	31.4862	-0.196976	0.006	-0.839885	0	2.54162	0	0	0	0	0	0	0	0	0	0
5.97	0.246092	330.08	-34.8443	-0.265491	0.006	-0.430602	0	-3.72418	0	-5.05678	278.596	31.5145	-0.197942	0.006	-0.839606	0	2.53754	0	0	0	0	0	0	0	0	0	0
5.98	0.726613	328.975	-34.4343	-0.26635	0.006	-0.431012	0	-3.69929	0	-4.87328	278.958	31.5969	-0.198946	0.006	-0.839342	0	2.53944	0	0	0	0	0	0	0	0	0	0
5.99	1.17916	328.132	-34.0934	-0.267163	0.006	-0.431384	0	-3.68049	0	-4.68127	279.679	31.7303	-0.199971	0.006	-0.839098	0	2.54682	0	0	0	0	0	0	0	0	0	0
6	1.59692	327.533	-33.8197	-0.267926	0.006	-0.431717	0	-3.6677	0	-4.4857	280.71	31.9113	-0.201006	0.006	-0.838878	0	2.55922	0	0	0	0	0	0	0	0	0	0
6.01	1.97419	327.159	-33.6089	-0.268632	0.006	-0.432009	0	-3.66051	0	-4.29214	282.005	32.136	-0.202038	0.006	-0.838684	0	2.57621	0	0	0	0	0	0	0	0	0	0
6.02	2.30577	326.999	-33.4547	-0.26928	0.006	-0.43226	0	-3.6582	0	-4.10587	283.518	32.3991	-0.203056	0.006	-0.83852	0	2.5974	0	0	0	0	0	0	0	0	0	0
6.03	2.58735	327.048	-33.3504	-0.269871	0.006	-0.432473	0	-3.65983	0	-3.93104	285.203	32.6948	-0.204051	0.006	-0.838384	0	2.62243	0	0	0	0	0	0	0	0	0	0
6.04	2.81545	327.307	-33.2891	-0.270405	0.006	-0.432653	0	-3.66444	0	-3.76993	287.013	33.0154	-0.205018	0.006	-0.838273	0	2.65097	0	0	0	0	0	0	0	0	0	0
6.05	2.98667	327.778	-33.2636	-0.270885	0.006	-0.432804	0	-3.67092	0	-3.62306	288.899	33.3517	-0.205954	0.006	-0.838185	0	2.68263	0	0	0	0	0	0	0	0	0	0
6.06	3.09854	328.464	-33.2664	-0.271315	0.006	-0.432936	0	-3.67821	0	-3.48854	290.815	33.6939	-0.206855	0.006	-0.838116	0	2.71699	0	0	0	0	0	0	0	0	0	0
6.07	3.15073	329.365	-33.2892	-0.271701	0.006	-0.433054	0	-3.68522	0	-3.36194	292.714	34.031	-0.207724	0.006	-0.83806	0	2.75365	0	0	0	0	0	0	0	0	0	0
6.08	3.14461	330.471	-33.324	-0.272048	0.006	-0.433164	0	-3.69092	0	-3.23637	294.551	34.3514	-0.208559	0.006	-0.838014	0	2.79213	0	0	0	0	0	0	0	0	0	0
6.09	3.08257	331.762	-33.3631	-0.272362	0.006	-0.433273	0	-3.69437	0	-3.10303	296.287	34.6436	-0.209361	0.006	-0.837974	0	2.83182	0	0	0	0	0	0	0	0	0	0
6.1	2.96907	333.203	-33.3989	-0.27265	0.006	-0.433384	0	-3.69483	0	-2.95273	297.893	34.897	-0.21013	0.006	-0.837935	0	2.8721	0	0	0	0	0	0	0	0	0	0
6.11	2.81247	334.75	-33.4235	-0.272918	0.006	-0.433503	0	-3.69177	0	-2.77752	299.353	35.103	-0.210868	0.006	-0.837893	0	2.91252	0	0	0	0	0	0	0	0	0	0
6.12	2.62465	336.351	-33.4299	-0.27317	0.006	-0.433629	0	-3.68501	0	-2.57241	300.664	35.2554	-0.211579	0.006	-0.837845	0	2.95273	0	0	0	0	0	0	0	0	0	0
6.13	2.41902	337.958	-33.413	-0.273411	0.006	-0.433764	0	-3.67467	0	-2.33596	301.831	35.3501	-0.212265	0.006	-0.837789	0	2.99238	0	0	0	0	0	0	0	0	0	0
6.14	2.20887	339.529	-33.3703	-0.273643	0.006	-0.433905	0	-3.66119	0	-2.07047	302.869	35.3854	-0.21293	0.006	-0.837723	0	3.03105	0	0	0	0	0	0	0	0	0	0
6.15	2.0063	341.035	-33.3018	-0.273868	0.006	-0.434051	0	-3.6453	0	-1.78097	303.792	35.3614	-0.213577	0.006	-0.837645	0	3.06835	0	0	0	0	0	0	0	0	0	0
6.16	1.82081	342.466	-33.2111	-0.27409	0.006	-0.434197	0	-3.62798	0	-1.47431	304.62	35.2806	-0.214207	0.006	-0.837554	0	3.10392	0	0	0	0	0	0	0	0	0	0
6.17	1.65878	343.834	-33.1044	-0.274308	0.006	-0.434343	0	-3.61041	0	-1.15879	305.376	35.1472	-0.214819	0.006	-0.837449	0	3.13733	0	0	0	0	0	0	0	0	0	0
6.18	1.5234	345.165	-32.9911	-0.274525	0.006	-0.434485	0	-3.59382	0	-0.843791	306.089	34.9685	-0.215415	0.006	-0.83733	0	3.16815	0	0	0	0	0	0	0	0	0	0
6.19	1.41549	346.497	-32.8819	-0.274739	0.006	-0.43462	0	-3.57934	0	-0.539355	306.792	34.7548	-0.215993	0.006	-0.837199	0	3.1959	0	0	0	0	0	0	0	0	0	0
6.2	1.33519	347.873	-32.7886	-0.274953	0.006	-0.434747	0	-3.56798	0	-0.255044	307.527	34.5198	-0.216551	0.006	-0.837058	0	3.22007	0	0	0	0	0	0	0	0	0	0
6.21	1.28273	349.334	-32.7237	-0.275165	0.006	-0.434863	0	-3.56039	0	0.000669679	308.343	34.2804	-0.21709	0.006	-0.836908	0	3.24024	0	0	0	0	0	0	0	0	0	0
6.22	1.25954	350.929	-32.7003	-0.275379	0.006	-0.434968	0	-3.55699	0	0.220888	309.292	34.0558	-0.217608	0.006	-0.836755	0	3.25597	0	0	0	0	0	0	0	0	0	0
6.23	1.26926	352.714	-32.7331	-0.275595	0.006	-0.435059	0	-3.5581	0	0.400855	310.432	33.8677	-0.218107	0.006	-0.8366	0	3.26695	0	0	0	0	0	0	0	0	0	0
6.24	1.31718	354.756	-32.84	-0.275815	0.006	-0.435136	0	-3.56384	0	0.538318	311.821	33.7385	-0.218588	0.006	-0.836448	0	3.27298	0	0	0	0	0	0	0	0	0	0
6.25	1.40901	357.126	-33.0423	-0.27604	0.006	-0.435197	0	-3.57417	0	0.632823	313.521	33.6911	-0.219054	0.006	-0.836303	0	3.27389	0	0	0	0	0	0	0	0	0	0
6.26	1.55061	359.898	-33.3634	-0.276269	0.006	-0.435239	0	-3.58879	0	0.684772	315.59	33.7476	-0.219507	0.006	-0.836166	0	3.26948	0	0	0	0	0	0	0	0	0	0
6.27	1.74798	363.145	-33.8284	-0.276503	0.006	-0.435262	0	-3.60725	0	0.695515	318.076	33.9288	-0.219951	0.006	-0.836043	0	3.25948	0	0	0	0	0	0	0	0	0	0
6.28	2.0067	366.938	-34.4618	-0.276742	0.006	-0.435262	0	-3.62888	0	0.668245	321.021	34.2538	-0.220387	0.006	-0.835935	0	3.2436	0	0	0	0	0	0	0	0	0	0
6.29	2.33075	371.343	-35.287	-0.276986	0.006	-0.435237	0	-3.65273	0	0.608187	324.446	34.7396	-0.220819	0.006	-0.835847	0	3.22148	0	0	0	0	0	0	0	0	0	0
6.3	2.72194	376.397	-36.3235	-0.277234	0.006	-0.435185	0	-3.6775	0	0.52204	328.362	35.4007	-0.221251	0.006	-0.83578	0	3.19275	0	0	0	0	0	0	0	0	0	0
6.31	3.18074	382.107	-37.586	-0.277487	0.006	-0.435104	0	-3.7015	0	0.417523	332.761	36.2487	-0.221686	0.006	-0.835736	0	3.1569	0	0	0	0	0	0	0	0	0	0
6.32	3.70724	388.444	-39.0827	-0.277743	0.006	-0.434994	0	-3.72261	0	0.303332	337.616	37.2914	-0.222128	0.006	-0.835713	0	3.11342	0	0	0	0	0	0	0	0	0	0
6.33	4.30026	395.342	-40.8151	-0.278002	0.006	-0.434856	0	-3.73852	0	0.188696	342.883	38.5329	-0.22258	0.006	-0.835711	0	3.06173	0	0	0	0	0	0	0	0	0	0
6.34	4.95573	402.7	-42.7783	-0.278263	0.006	-0.434693	0	-3.74676	0	0.0831371	348.497	39.9723	-0.223044	0.006	-0.835727	0	3.0013	0	0	0	0	0	0	0	0	0	0
6.35	5.66638	410.389	-44.9597	-0.278527	0.006	-0.434508	0	-3.74479	0	-0.00343772	354.366	41.6038	-0.223523	0.006	-0.835759	0	2.93168	0	0	0	0	0	0	0	0	0	0
6.36	6.42297	418.256	-47.3386	-0.278794	0.006	-0.434305	0	-3.73011	0	-0.062022	360.378	43.4166	-0.224016	0.006	-0.835806	0	2.85253	0	0	0	0	0	0	0	0	0	0
6.37	7.21489	426.134	-49.8865	-0.279062	0.006	-0.43409	0	-3.70041	0	-0.0861328	366.404	45.3953	-0.224523	0.006	-0.835864	0	2.76363	0	0	0	0	0	0	0	0	0	0
6.38	8.02971	433.841	-52.5682	-0.279332	0.006	-0.433868	0	-3.65373	0	-0.0726589	372.307	47.5198	-0.22504	0.006	-0.835931	0	2.66492	0	0	0	0	0	0	0	0	0	0
6.39	8.85404	441.192	-55.3419	-0.279601	0.006	-0.433645	0	-3.58862	0	-0.0214862	377.941	49.765	-0.225563	0.006	-0.836004	0	2.55661	0	0	0	0	0	0	0	0	0	0
6.4	9.67469	448.001	-58.1611	-0.279869	0.006	-0.433428	0	-3.5043	0	0.0654491	383.157	52.1009	-0.226088	0.006	-0.836081	0	2.43919	0	0	0	0	0	0	0	0	0	0
6.41	10.4791	454.097	-60.976	-0.280135	0.006	-0.433221	0	-3.40082	0	0.184141	387.807	54.4934	-0.226607	0.006	-0.836159	0	2.31344	0	0	0	0	0	0	0	0	0	0
6.42	11.2556	459.326	-63.7349	-0.280399	0.006	-0.433033	0	-3.27908	0	0.328301	391.75	56.9044	-0.227114	0.006	-0.836238	0	2.18045	0	0	0	0	0	0	0	0	0	0
6.43	11.9954	463.562	-66.3877	-0.280661	0.006	-0.432865	0	-3.14074	0	0.489587	394.86	59.2932	-0.227603	0.006	-0.836315	0	2.04154	0	0	0	0	0	0	0	0	0	0
6.44	12.6931	466.704	-68.8882	-0.280921	0.006	-0.432722	0	-2.98803	0	0.658762	397.04	61.6182	-0.228067	0.006	-0.836389	0	1.89814	0	0	0	0	0	0	0	0	0	0
6.45	13.3475	468.68	-71.1956	-0.281179	0.006	-0.432604	0	-2.82356	0	0.826915	398.221	63.8386	-0.2285	0.006	-0.836462	0	1.75177	0	0	0	0	0	0	0	0	0	0
6.46	13.9585	469.444	-73.2753	-0.281436	0.006	-0.432512	0	-2.6503	0	0.986642	398.376	65.9174	-0.228899	0.006	-0.836533	0	1.60401	0	0	0	0	0	0	0	0	0	0
6.47	14.5243	468.981	-75.099	-0.281688	0.006	-0.432442	0	-2.47144	0	1.13283	397.515	67.823	-0.229256	0.006	-0.836604	0	1.45641	0	0	0	0	0	0	0	0	0	0
6.48	15.0407	467.304	-76.6467	-0.281934	0.006	-0.432392	0	-2.2902	0	1.26154	395.684	69.5315	-0.229563	0.006	-0.836678	0	1.31056	0	0	0	0	0	0	0	0	0	0
6.49	15.5034	464.457	-77.9082	-0.28217	0.006	-0.432357	0	-2.10975	0	1.368	392.959	71.0269	-0.229812	0.006	-0.83676	0	1.16812	0	0	0	0	0	0	0	0	0	0
6.5	15.9081	460.506	-78.8826	-0.282392	0.006	-0.43233	0	-1.93308	0	1.44608	389.437	72.301	-0.229993	0.006	-0.836855	0	1.03086	0	0	0	0	0	0	0	0	0	0
6.51	16.2512	455.538	-79.577	-0.282595	0.006	-0.432306	0	-1.76295	0	1.48916	385.222	73.3518	-0.230095	0.006	-0.836969	0	0.900527	0	0	0	0	0	0	0	0	0	0
6.52	16.5282	449.65	-80.0042	-0.282774	0.006	-0.432277	0	-1.60177	0	1.49079	380.418	74.1821	-0.230106	0.006	-0.837109	0	0.778701	0	0	0	0	0	0	0	0	0	0
6.53	16.7329	442.941	-80.181	-0.282921	0.006	-0.432235	0	-1.45158	0	1.44525	375.121	74.7976	-0.230015	0.006	-0.837281	0	0.666659	0	0	0	0	0	0	0	0	0	0
6.54	16.8575	435.506	-80.1251	-0.283031	0.006	-0.432173	0	-1.31395	0	1.34777	369.415	75.2056	-0.229812	0.006	-0.837489	0	0.565377	0	0	0	0	0	0	0	0	0	0
6.55	16.8953	427.428	-79.854	-0.283095	0.006	-0.432083	0	-1.19008	0	1.19541	363.382	75.4151	-0.229488	0.006	-0.837735	0	0.475649	0	0	0	0	0	0	0	0	0	0
6.56	16.8426	418.782	-79.384	-0.28311	0.006	-0.431962	0	-1.08069	0	0.986595	357.1	75.4356	-0.229035	0.006	-0.838021	0	0.398047	0	0	0	0	0	0	0	0	0	0
6.57	16.6995	409.639	-78.7283	-0.283071	0.006	-0.431808	0	-0.986038	0	0.719923	350.639	75.2777	-0.228451	0.006	-0.83835	0	0.33285	0	0	0	0	0	0	0	0	0	0
6.58	16.4679	400.069	-77.898	-0.282974	0.006	-0.431621	0	-0.905755	0	0.39391	344.065	74.9541	-0.227731	0.006	-0.83872	0	0.279991	0	0	0	0	0	0	0	0	0	0
6.59	16.1478	390.143	-76.9032	-0.282813	0.006	-0.431403	0	-0.838878	0	0.00779673	337.443	74.48	-0.226875	0.006	-0.839132	0	0.239144	0	0	0	0	0	0	0	0	0	0
6.6	15.7371	379.933	-75.7547	-0.28258	0.006	-0.431153	0	-0.78388	0	-0.437371	330.838	73.8727	-0.225887	0.006	-0.839584	0	0.209648	0	0	0	0	0	0	0	0	0	0
6.61	15.2331	369.518	-74.4646	-0.282266	0.006	-0.430871	0	-0.738735	0	-0.939304	324.319	73.152	-0.224769	0.006	-0.840073	0	0.190388	0	0	0	0	0	0	0	0	0	0
6.62	14.6333	358.982	-73.0456	-0.281862	0.006	-0.430558	0	-0.701093	0	-1.49735	317.966	72.3395	-0.223526	0.006	-0.840597	0	0.179786	0	0	0	0	0	0	0	0	0	0
6.63	13.9368	348.423	-71.5111	-0.281362	0.006	-0.430214	0	-0.668599	0	-2.11403	311.858	71.4582	-0.222162	0.006	-0.841152	0	0.176028	0	0	0	0	0	0	0	0	0	0
6.64	13.1438	337.945	-69.8752	-0.28076	0.006	-0.429839	0	-0.639129	0	-2.79233	306.075	70.53	-0.220689	0.006	-0.841732	0	0.177372	0	0	0	0	0	0	0	0	0	0
